name Walk1.mot
datacolumns 19
datarows 27
range 1.62000000 1.75000000
endheader

                time	   L_ground_force_vx	   L_ground_force_vy	   L_ground_force_vz	   L_ground_force_px	   L_ground_force_py	   L_ground_force_pz	   R_ground_force_vx	   R_ground_force_vy	   R_ground_force_vz	   R_ground_force_px	   R_ground_force_py	   R_ground_force_pz	   L_ground_torque_x	   L_ground_torque_y	   L_ground_torque_z	   R_ground_torque_x	   R_ground_torque_y	   R_ground_torque_z	
          1.62000000	         17.49770784	        638.82739726	         34.67452228	         -0.15244446	          0.00000000	         -0.04499256	         -0.04461379	          0.28678532	         -0.01485587	          0.00029946	          0.00000000	          0.00009479	          0.00000000	         -1.71404044	          0.00000000	          0.00000000	         -0.00022738	          0.00000000	
          1.62500000	         18.96756074	        643.22876081	         35.40004406	         -0.14970461	          0.00000000	         -0.04505840	         -0.06394172	          0.38258373	         -0.01888910	          0.00036701	          0.00000000	          0.00011601	          0.00000000	         -1.71471730	          0.00000000	          0.00000000	         -0.00033523	          0.00000000	
          1.63000000	         20.57055866	        648.06787672	         36.30390053	         -0.14706507	          0.00000000	         -0.04514310	         -0.08619550	          0.48478651	         -0.02284887	          0.00042707	          0.00000000	          0.00013479	          0.00000000	         -1.69392957	          0.00000000	          0.00000000	         -0.00046206	          0.00000000	
          1.63500000	         22.35142387	        653.44834551	         37.36915439	         -0.14455375	          0.00000000	         -0.04524061	         -0.11026727	          0.58437166	         -0.02620576	          0.00046807	          0.00000000	          0.00014745	          0.00000000	         -1.65164163	          0.00000000	          0.00000000	         -0.00060285	          0.00000000	
          1.64000000	         24.35645799	        659.44829779	         38.56645439	         -0.14219725	          0.00000000	         -0.04534197	         -0.13420524	          0.66759330	         -0.02820851	          0.00047428	          0.00000000	          0.00014901	          0.00000000	         -1.58923440	          0.00000000	          0.00000000	         -0.00074805	          0.00000000	
          1.64500000	         26.62868165	        666.11272559	         39.85208402	         -0.14001972	          0.00000000	         -0.04543793	         -0.15498235	          0.71503443	         -0.02785266	          0.00042547	          0.00000000	          0.00013307	          0.00000000	         -1.50974899	          0.00000000	          0.00000000	         -0.00088221	          0.00000000	
          1.65000000	         29.20394464	        673.44442466	         41.16688522	         -0.13803991	          0.00000000	         -0.04552063	         -0.16826808	          0.70082934	         -0.02386273	          0.00029687	          0.00000000	          0.00009179	          0.00000000	         -1.41814288	          0.00000000	          0.00000000	         -0.00098263	          0.00000000	
          1.65500000	         32.10736455	        681.40080893	         42.43604863	         -0.13626845	          0.00000000	         -0.04558252	         -0.16823340	          0.59224627	         -0.01469798	          0.00005974	          0.00000000	          0.00001611	          0.00000000	         -1.32184471	          0.00000000	          0.00000000	         -0.00101802	          0.00000000	
          1.66000000	         35.34916111	        689.89577407	         43.57064796	         -0.13470631	          0.00000000	         -0.04561708	         -0.14743143	          0.34988345	          0.00140601	         -0.00031741	          0.00000000	         -0.00010389	          0.00000000	         -1.23088568	          0.00000000	          0.00000000	         -0.00094767	          0.00000000	
          1.66500000	         38.91981152	        698.80302734	         44.48484119	         -0.13334564	          0.00000000	         -0.04561990	         -0.09681081	         -0.07120267	          0.02634486	         -0.00086639	          0.00000000	         -0.00027821	          0.00000000	         -1.15636950	          0.00000000	          0.00000000	         -0.00072108	          0.00000000	
          1.67000000	         42.79422140	        707.96031733	         45.12587119	         -0.13217012	          0.00000000	         -0.04558883	         -0.00593455	         -0.71905454	          0.06198493	         -0.00161561	          0.00000000	         -0.00051572	          0.00000000	         -1.10705798	          0.00000000	          0.00000000	         -0.00027882	          0.00000000	
          1.67500000	         46.94672447	        717.17697102	         45.47663370	         -0.13115692	          0.00000000	         -0.04552312	          0.13650794	         -1.64062199	          0.10991686	         -0.00258467	          0.00000000	         -0.00082250	          0.00000000	         -1.08775063	          0.00000000	          0.00000000	          0.00044521	          0.00000000	
          1.68000000	         51.35505369	        726.25173615	         45.54517000	         -0.13028103	          0.00000000	         -0.04542347	          0.34179460	         -2.87536080	          0.17110509	         -0.00377704	          0.00000000	         -0.00119944	          0.00000000	         -1.09940148	          0.00000000	          0.00000000	          0.00151936	          0.00000000	
          1.68500000	         55.99512823	        734.98783515	         45.35878492	         -0.12951769	          0.00000000	         -0.04529273	          0.61976158	         -4.44617473	          0.24541871	         -0.00517058	          0.00000000	         -0.00163930	          0.00000000	         -1.13967337	          0.00000000	          0.00000000	          0.00300697	          0.00000000	
          1.69000000	         60.83915015	        743.19691777	         44.95933208	         -0.12884272	          0.00000000	         -0.04513547	          0.97678365	         -6.34733190	          0.33103485	         -0.00670596	          0.00000000	         -0.00212305	          0.00000000	         -1.20351228	          0.00000000	          0.00000000	          0.00495589	          0.00000000	
          1.69500000	         65.86034858	        750.70016845	         44.39814231	         -0.12823376	          0.00000000	         -0.04495627	          1.41305177	         -8.52915356	          0.42371703	         -0.00827318	          0.00000000	         -0.00261557	          0.00000000	         -1.28429881	          0.00000000	          0.00000000	          0.00738378	          0.00000000	
          1.70000000	         71.03723191	        757.33013953	         43.72903074	         -0.12767205	          0.00000000	         -0.04475991	          1.91909046	        -10.87955786	          0.51598754	         -0.00969675	          0.00000000	         -0.00306102	          0.00000000	         -1.37480291	          0.00000000	          0.00000000	          0.01025917	          0.00000000	
          1.70500000	         76.35442245	        762.92961133	         43.00032973	         -0.12714320	          0.00000000	         -0.04455069	          2.47151918	        -13.20297564	          0.59623654	         -0.01072075	          0.00000000	         -0.00337813	          0.00000000	         -1.46787038	          0.00000000	          0.00000000	          0.01347775	          0.00000000	
          1.71000000	         81.80017190	        767.35073992	         42.24906860	         -0.12663633	          0.00000000	         -0.04433116	          3.02815761	        -15.19776856	          0.64784249	         -0.01099538	          0.00000000	         -0.00345602	          0.00000000	         -1.55700174	          0.00000000	          0.00000000	          0.01683454	          0.00000000	
          1.71500000	         87.36154641	        770.45394439	         41.49780886	         -0.12614324	          0.00000000	         -0.04410224	          3.52271141	        -16.43409654	          0.64841859	         -0.01006761	          0.00000000	         -0.00315124	          0.00000000	         -1.63696009	          0.00000000	          0.00000000	          0.01999289	          0.00000000	
          1.72000000	         93.02007504	        772.10775308	         40.75423278	         -0.12565895	          0.00000000	         -0.04386370	          3.85945934	        -16.33521574	          0.56934874	         -0.00737924	          0.00000000	         -0.00228734	          0.00000000	         -1.70406242	          0.00000000	          0.00000000	          0.02245227	          0.00000000	
          1.72500000	         98.74840113	        772.19010985	         40.01313027	         -0.12518163	          0.00000000	         -0.04361462	          3.90859753	        -14.16643222	          0.37583212	         -0.00227697	          0.00000000	         -0.00065810	          0.00000000	         -1.75591923	          0.00000000	          0.00000000	          0.02351838	          0.00000000	
          1.73000000	        104.50820669	        770.58837160	         39.25968633	         -0.12471217	          0.00000000	         -0.04335468	          3.50318278	         -9.03735631	          0.02771559	          0.00596020	          0.00000000	          0.00196366	          0.00000000	         -1.79085451	          0.00000000	          0.00000000	          0.02228038	          0.00000000	
          1.73500000	        110.24796788	        767.19658167	         38.47176759	         -0.12425349	          0.00000000	         -0.04308379	          2.43894645	          0.07538039	         -0.51854838	          0.01807003	          0.00000000	          0.00580981	          0.00000000	         -1.80791429	          0.00000000	          0.00000000	          0.01760206	          0.00000000	
          1.74000000	        115.90045337	        761.91047597	         37.62144922	         -0.12380949	          0.00000000	         -0.04280255	          0.47860732	         14.27630059	         -1.30642976	          0.03472531	          0.00000000	          0.01109091	          0.00000000	         -1.80700632	          0.00000000	          0.00000000	          0.00813596	          0.00000000	
          1.74500000	        121.38180606	        754.62351038	         36.67743493	         -0.12338397	          0.00000000	         -0.04251239	         -2.63733147	         34.66025867	         -2.37391652	          0.05641460	          0.00000000	          0.01795832	          0.00000000	         -1.78856658	          0.00000000	          0.00000000	         -0.00762867	          0.00000000	
          1.75000000	        126.59208847	        745.22128890	         35.60777629	         -0.12297984	          0.00000000	         -0.04221545	         -7.17100616	         62.17200616	         -3.74576315	          0.08327895	          0.00000000	          0.02645246	          0.00000000	         -1.75321716	          0.00000000	          0.00000000	         -0.03127089	          0.00000000	
